<svg version="1.1" xmlns="http://www.w3.org/2000/svg" xmlns:xlink="http://www.w3.org/1999/xlink" x="0px" y="0px"
	 viewBox="0 0 30 60">
	<mask id="female">
		<rect width="100%" height="100%" fill="#FFFFFF" />
		<g>
			<path d="M15,1c2.7,0,4.8,2.1,4.8,4.8c0,2.7-2.1,4.8-4.8,4.8c-2.7,0-4.8-2.1-4.8-4.8
		C10.2,3.1,12.3,1,15,1z M27.2,32.4L27,32.4c-0.9,0.3-2-0.2-2.3-1.2l-4.2-12.9l-0.7,0l5.9,23.8h-5.6l0,14.6c0,1.2-1,2.2-2.2,2.2h0
		c-1.2,0-2.2-1-2.2-2.2l0-14.6h-1.6l0,14.6c0,1.2-1,2.2-2.2,2.2h0c-1.2,0-2.2-1-2.2-2.2l0-14.6H4.2l5.9-23.8l-0.7,0L5.3,31.3
		C5,32.2,3.9,32.7,3,32.4l-0.2-0.1c-0.9-0.3-1.5-1.3-1.2-2.3c0,0,4.8-14.7,4.8-14.7c0.9-2.2,3.2-3.8,5.7-3.8h5.7
		c2.6,0,4.8,1.6,5.7,3.8c0,0,4.8,14.7,4.8,14.7C28.7,31,28.1,32.1,27.2,32.4z"></path>
		</g>
	</mask>
	<rect width="100%" height="100%" fill="#FFFFFF" mask="url(#female)" />
</svg>