<svg style="position: absolute; width: 0; height: 0; overflow: hidden;" version="1.1" xmlns="http://www.w3.org/2000/svg" xmlns:xlink="http://www.w3.org/1999/xlink">
<defs>
<symbol id="icon-plus" viewBox="0 0 22 28">
<title>plus</title>
<path d="M22 11.5v3c0 0.828-0.672 1.5-1.5 1.5h-6.5v6.5c0 0.828-0.672 1.5-1.5 1.5h-3c-0.828 0-1.5-0.672-1.5-1.5v-6.5h-6.5c-0.828 0-1.5-0.672-1.5-1.5v-3c0-0.828 0.672-1.5 1.5-1.5h6.5v-6.5c0-0.828 0.672-1.5 1.5-1.5h3c0.828 0 1.5 0.672 1.5 1.5v6.5h6.5c0.828 0 1.5 0.672 1.5 1.5z"></path>
</symbol>
<symbol id="icon-search" viewBox="0 0 26 28">
<title>search</title>
<path d="M18 13c0-3.859-3.141-7-7-7s-7 3.141-7 7 3.141 7 7 7 7-3.141 7-7zM26 26c0 1.094-0.906 2-2 2-0.531 0-1.047-0.219-1.406-0.594l-5.359-5.344c-1.828 1.266-4.016 1.937-6.234 1.937-6.078 0-11-4.922-11-11s4.922-11 11-11 11 4.922 11 11c0 2.219-0.672 4.406-1.937 6.234l5.359 5.359c0.359 0.359 0.578 0.875 0.578 1.406z"></path>
</symbol>
<symbol id="icon-heart" viewBox="0 0 28 28">
<title>heart</title>
<path d="M14 26c-0.25 0-0.5-0.094-0.688-0.281l-9.75-9.406c-0.125-0.109-3.563-3.25-3.563-7 0-4.578 2.797-7.313 7.469-7.313 2.734 0 5.297 2.156 6.531 3.375 1.234-1.219 3.797-3.375 6.531-3.375 4.672 0 7.469 2.734 7.469 7.313 0 3.75-3.437 6.891-3.578 7.031l-9.734 9.375c-0.187 0.187-0.438 0.281-0.688 0.281z"></path>
</symbol>
<symbol id="icon-star" viewBox="0 0 26 28">
<title>star</title>
<path d="M26 10.109c0 0.281-0.203 0.547-0.406 0.75l-5.672 5.531 1.344 7.812c0.016 0.109 0.016 0.203 0.016 0.313 0 0.406-0.187 0.781-0.641 0.781-0.219 0-0.438-0.078-0.625-0.187l-7.016-3.687-7.016 3.687c-0.203 0.109-0.406 0.187-0.625 0.187-0.453 0-0.656-0.375-0.656-0.781 0-0.109 0.016-0.203 0.031-0.313l1.344-7.812-5.688-5.531c-0.187-0.203-0.391-0.469-0.391-0.75 0-0.469 0.484-0.656 0.875-0.719l7.844-1.141 3.516-7.109c0.141-0.297 0.406-0.641 0.766-0.641s0.625 0.344 0.766 0.641l3.516 7.109 7.844 1.141c0.375 0.063 0.875 0.25 0.875 0.719z"></path>
</symbol>
<symbol id="icon-star-o" viewBox="0 0 26 28">
<title>star-o</title>
<path d="M17.766 15.687l4.781-4.641-6.594-0.969-2.953-5.969-2.953 5.969-6.594 0.969 4.781 4.641-1.141 6.578 5.906-3.109 5.891 3.109zM26 10.109c0 0.281-0.203 0.547-0.406 0.75l-5.672 5.531 1.344 7.812c0.016 0.109 0.016 0.203 0.016 0.313 0 0.422-0.187 0.781-0.641 0.781-0.219 0-0.438-0.078-0.625-0.187l-7.016-3.687-7.016 3.687c-0.203 0.109-0.406 0.187-0.625 0.187-0.453 0-0.656-0.375-0.656-0.781 0-0.109 0.016-0.203 0.031-0.313l1.344-7.812-5.688-5.531c-0.187-0.203-0.391-0.469-0.391-0.75 0-0.469 0.484-0.656 0.875-0.719l7.844-1.141 3.516-7.109c0.141-0.297 0.406-0.641 0.766-0.641s0.625 0.344 0.766 0.641l3.516 7.109 7.844 1.141c0.375 0.063 0.875 0.25 0.875 0.719z"></path>
</symbol>
<symbol id="icon-times" viewBox="0 0 22 28">
<title>times</title>
<path d="M20.281 20.656c0 0.391-0.156 0.781-0.438 1.062l-2.125 2.125c-0.281 0.281-0.672 0.438-1.062 0.438s-0.781-0.156-1.062-0.438l-4.594-4.594-4.594 4.594c-0.281 0.281-0.672 0.438-1.062 0.438s-0.781-0.156-1.062-0.438l-2.125-2.125c-0.281-0.281-0.438-0.672-0.438-1.062s0.156-0.781 0.438-1.062l4.594-4.594-4.594-4.594c-0.281-0.281-0.438-0.672-0.438-1.062s0.156-0.781 0.438-1.062l2.125-2.125c0.281-0.281 0.672-0.438 1.062-0.438s0.781 0.156 1.062 0.438l4.594 4.594 4.594-4.594c0.281-0.281 0.672-0.438 1.062-0.438s0.781 0.156 1.062 0.438l2.125 2.125c0.281 0.281 0.438 0.672 0.438 1.062s-0.156 0.781-0.438 1.062l-4.594 4.594 4.594 4.594c0.281 0.281 0.438 0.672 0.438 1.062z"></path>
</symbol>
<symbol id="icon-trash-o" viewBox="0 0 22 28">
<title>trash-o</title>
<path d="M8 11.5v9c0 0.281-0.219 0.5-0.5 0.5h-1c-0.281 0-0.5-0.219-0.5-0.5v-9c0-0.281 0.219-0.5 0.5-0.5h1c0.281 0 0.5 0.219 0.5 0.5zM12 11.5v9c0 0.281-0.219 0.5-0.5 0.5h-1c-0.281 0-0.5-0.219-0.5-0.5v-9c0-0.281 0.219-0.5 0.5-0.5h1c0.281 0 0.5 0.219 0.5 0.5zM16 11.5v9c0 0.281-0.219 0.5-0.5 0.5h-1c-0.281 0-0.5-0.219-0.5-0.5v-9c0-0.281 0.219-0.5 0.5-0.5h1c0.281 0 0.5 0.219 0.5 0.5zM18 22.813v-14.812h-14v14.812c0 0.75 0.422 1.188 0.5 1.188h13c0.078 0 0.5-0.438 0.5-1.188zM7.5 6h7l-0.75-1.828c-0.047-0.063-0.187-0.156-0.266-0.172h-4.953c-0.094 0.016-0.219 0.109-0.266 0.172zM22 6.5v1c0 0.281-0.219 0.5-0.5 0.5h-1.5v14.812c0 1.719-1.125 3.187-2.5 3.187h-13c-1.375 0-2.5-1.406-2.5-3.125v-14.875h-1.5c-0.281 0-0.5-0.219-0.5-0.5v-1c0-0.281 0.219-0.5 0.5-0.5h4.828l1.094-2.609c0.313-0.766 1.25-1.391 2.078-1.391h5c0.828 0 1.766 0.625 2.078 1.391l1.094 2.609h4.828c0.281 0 0.5 0.219 0.5 0.5z"></path>
</symbol>
<symbol id="icon-download" viewBox="0 0 26 28">
<title>download</title>
<path d="M20 21c0-0.547-0.453-1-1-1s-1 0.453-1 1 0.453 1 1 1 1-0.453 1-1zM24 21c0-0.547-0.453-1-1-1s-1 0.453-1 1 0.453 1 1 1 1-0.453 1-1zM26 17.5v5c0 0.828-0.672 1.5-1.5 1.5h-23c-0.828 0-1.5-0.672-1.5-1.5v-5c0-0.828 0.672-1.5 1.5-1.5h7.266l2.109 2.125c0.578 0.562 1.328 0.875 2.125 0.875s1.547-0.313 2.125-0.875l2.125-2.125h7.25c0.828 0 1.5 0.672 1.5 1.5zM20.922 8.609c0.156 0.375 0.078 0.812-0.219 1.094l-7 7c-0.187 0.203-0.453 0.297-0.703 0.297s-0.516-0.094-0.703-0.297l-7-7c-0.297-0.281-0.375-0.719-0.219-1.094 0.156-0.359 0.516-0.609 0.922-0.609h4v-7c0-0.547 0.453-1 1-1h4c0.547 0 1 0.453 1 1v7h4c0.406 0 0.766 0.25 0.922 0.609z"></path>
</symbol>
<symbol id="icon-tags" viewBox="0 0 30 28">
<title>tags</title>
<path d="M7 7c0-1.109-0.891-2-2-2s-2 0.891-2 2 0.891 2 2 2 2-0.891 2-2zM23.672 16c0 0.531-0.219 1.047-0.578 1.406l-7.672 7.688c-0.375 0.359-0.891 0.578-1.422 0.578s-1.047-0.219-1.406-0.578l-11.172-11.188c-0.797-0.781-1.422-2.297-1.422-3.406v-6.5c0-1.094 0.906-2 2-2h6.5c1.109 0 2.625 0.625 3.422 1.422l11.172 11.156c0.359 0.375 0.578 0.891 0.578 1.422zM29.672 16c0 0.531-0.219 1.047-0.578 1.406l-7.672 7.688c-0.375 0.359-0.891 0.578-1.422 0.578-0.812 0-1.219-0.375-1.75-0.922l7.344-7.344c0.359-0.359 0.578-0.875 0.578-1.406s-0.219-1.047-0.578-1.422l-11.172-11.156c-0.797-0.797-2.312-1.422-3.422-1.422h3.5c1.109 0 2.625 0.625 3.422 1.422l11.172 11.156c0.359 0.375 0.578 0.891 0.578 1.422z"></path>
</symbol>
<symbol id="icon-list" viewBox="0 0 28 28">
<title>list</title>
<path d="M4 20.5v3c0 0.266-0.234 0.5-0.5 0.5h-3c-0.266 0-0.5-0.234-0.5-0.5v-3c0-0.266 0.234-0.5 0.5-0.5h3c0.266 0 0.5 0.234 0.5 0.5zM4 14.5v3c0 0.266-0.234 0.5-0.5 0.5h-3c-0.266 0-0.5-0.234-0.5-0.5v-3c0-0.266 0.234-0.5 0.5-0.5h3c0.266 0 0.5 0.234 0.5 0.5zM4 8.5v3c0 0.266-0.234 0.5-0.5 0.5h-3c-0.266 0-0.5-0.234-0.5-0.5v-3c0-0.266 0.234-0.5 0.5-0.5h3c0.266 0 0.5 0.234 0.5 0.5zM28 20.5v3c0 0.266-0.234 0.5-0.5 0.5h-21c-0.266 0-0.5-0.234-0.5-0.5v-3c0-0.266 0.234-0.5 0.5-0.5h21c0.266 0 0.5 0.234 0.5 0.5zM4 2.5v3c0 0.266-0.234 0.5-0.5 0.5h-3c-0.266 0-0.5-0.234-0.5-0.5v-3c0-0.266 0.234-0.5 0.5-0.5h3c0.266 0 0.5 0.234 0.5 0.5zM28 14.5v3c0 0.266-0.234 0.5-0.5 0.5h-21c-0.266 0-0.5-0.234-0.5-0.5v-3c0-0.266 0.234-0.5 0.5-0.5h21c0.266 0 0.5 0.234 0.5 0.5zM28 8.5v3c0 0.266-0.234 0.5-0.5 0.5h-21c-0.266 0-0.5-0.234-0.5-0.5v-3c0-0.266 0.234-0.5 0.5-0.5h21c0.266 0 0.5 0.234 0.5 0.5zM28 2.5v3c0 0.266-0.234 0.5-0.5 0.5h-21c-0.266 0-0.5-0.234-0.5-0.5v-3c0-0.266 0.234-0.5 0.5-0.5h21c0.266 0 0.5 0.234 0.5 0.5z"></path>
</symbol>
<symbol id="icon-map-marker" viewBox="0 0 16 28">
<title>map-marker</title>
<path d="M12 10c0-2.203-1.797-4-4-4s-4 1.797-4 4 1.797 4 4 4 4-1.797 4-4zM16 10c0 0.953-0.109 1.937-0.516 2.797l-5.688 12.094c-0.328 0.688-1.047 1.109-1.797 1.109s-1.469-0.422-1.781-1.109l-5.703-12.094c-0.406-0.859-0.516-1.844-0.516-2.797 0-4.422 3.578-8 8-8s8 3.578 8 8z"></path>
</symbol>
<symbol id="icon-check-square-o" viewBox="0 0 26 28">
<title>check-square-o</title>
<path d="M22 14.531v4.969c0 2.484-2.016 4.5-4.5 4.5h-13c-2.484 0-4.5-2.016-4.5-4.5v-13c0-2.484 2.016-4.5 4.5-4.5h13c0.625 0 1.25 0.125 1.828 0.391 0.141 0.063 0.25 0.203 0.281 0.359 0.031 0.172-0.016 0.328-0.141 0.453l-0.766 0.766c-0.094 0.094-0.234 0.156-0.359 0.156-0.047 0-0.094-0.016-0.141-0.031-0.234-0.063-0.469-0.094-0.703-0.094h-13c-1.375 0-2.5 1.125-2.5 2.5v13c0 1.375 1.125 2.5 2.5 2.5h13c1.375 0 2.5-1.125 2.5-2.5v-3.969c0-0.125 0.047-0.25 0.141-0.344l1-1c0.109-0.109 0.234-0.156 0.359-0.156 0.063 0 0.125 0.016 0.187 0.047 0.187 0.078 0.313 0.25 0.313 0.453zM25.609 6.891l-12.719 12.719c-0.5 0.5-1.281 0.5-1.781 0l-6.719-6.719c-0.5-0.5-0.5-1.281 0-1.781l1.719-1.719c0.5-0.5 1.281-0.5 1.781 0l4.109 4.109 10.109-10.109c0.5-0.5 1.281-0.5 1.781 0l1.719 1.719c0.5 0.5 0.5 1.281 0 1.781z"></path>
</symbol>
<symbol id="icon-play" viewBox="0 0 22 28">
<title>play</title>
<path d="M21.625 14.484l-20.75 11.531c-0.484 0.266-0.875 0.031-0.875-0.516v-23c0-0.547 0.391-0.781 0.875-0.516l20.75 11.531c0.484 0.266 0.484 0.703 0 0.969z"></path>
</symbol>
<symbol id="icon-times-circle" viewBox="0 0 24 28">
<title>times-circle</title>
<path d="M17.141 16.859l-2.281 2.281c-0.203 0.203-0.516 0.203-0.719 0l-2.141-2.141-2.141 2.141c-0.203 0.203-0.516 0.203-0.719 0l-2.281-2.281c-0.203-0.203-0.203-0.516 0-0.719l2.141-2.141-2.141-2.141c-0.203-0.203-0.203-0.516 0-0.719l2.281-2.281c0.203-0.203 0.516-0.203 0.719 0l2.141 2.141 2.141-2.141c0.203-0.203 0.516-0.203 0.719 0l2.281 2.281c0.203 0.203 0.203 0.516 0 0.719l-2.141 2.141 2.141 2.141c0.203 0.203 0.203 0.516 0 0.719zM20.5 14c0-4.688-3.813-8.5-8.5-8.5s-8.5 3.813-8.5 8.5 3.813 8.5 8.5 8.5 8.5-3.813 8.5-8.5zM24 14c0 6.625-5.375 12-12 12s-12-5.375-12-12 5.375-12 12-12 12 5.375 12 12z"></path>
</symbol>
<symbol id="icon-arrow-left" viewBox="0 0 25 28">
<title>arrow-left</title>
<path d="M24 14v2c0 1.062-0.703 2-1.828 2h-11l4.578 4.594c0.375 0.359 0.594 0.875 0.594 1.406s-0.219 1.047-0.594 1.406l-1.172 1.188c-0.359 0.359-0.875 0.578-1.406 0.578s-1.047-0.219-1.422-0.578l-10.172-10.187c-0.359-0.359-0.578-0.875-0.578-1.406s0.219-1.047 0.578-1.422l10.172-10.156c0.375-0.375 0.891-0.594 1.422-0.594s1.031 0.219 1.406 0.594l1.172 1.156c0.375 0.375 0.594 0.891 0.594 1.422s-0.219 1.047-0.594 1.422l-4.578 4.578h11c1.125 0 1.828 0.938 1.828 2z"></path>
</symbol>
<symbol id="icon-arrow-right" viewBox="0 0 23 28">
<title>arrow-right</title>
<path d="M23 15c0 0.531-0.203 1.047-0.578 1.422l-10.172 10.172c-0.375 0.359-0.891 0.578-1.422 0.578s-1.031-0.219-1.406-0.578l-1.172-1.172c-0.375-0.375-0.594-0.891-0.594-1.422s0.219-1.047 0.594-1.422l4.578-4.578h-11c-1.125 0-1.828-0.938-1.828-2v-2c0-1.062 0.703-2 1.828-2h11l-4.578-4.594c-0.375-0.359-0.594-0.875-0.594-1.406s0.219-1.047 0.594-1.406l1.172-1.172c0.375-0.375 0.875-0.594 1.406-0.594s1.047 0.219 1.422 0.594l10.172 10.172c0.375 0.359 0.578 0.875 0.578 1.406z"></path>
</symbol>
<symbol id="icon-expand" viewBox="0 0 24 28">
<title>expand</title>
<path d="M11.797 16.5c0 0.125-0.063 0.266-0.156 0.359l-5.187 5.187 2.25 2.25c0.187 0.187 0.297 0.438 0.297 0.703 0 0.547-0.453 1-1 1h-7c-0.547 0-1-0.453-1-1v-7c0-0.547 0.453-1 1-1 0.266 0 0.516 0.109 0.703 0.297l2.25 2.25 5.187-5.187c0.094-0.094 0.234-0.156 0.359-0.156s0.266 0.063 0.359 0.156l1.781 1.781c0.094 0.094 0.156 0.234 0.156 0.359zM24 3v7c0 0.547-0.453 1-1 1-0.266 0-0.516-0.109-0.703-0.297l-2.25-2.25-5.187 5.187c-0.094 0.094-0.234 0.156-0.359 0.156s-0.266-0.063-0.359-0.156l-1.781-1.781c-0.094-0.094-0.156-0.234-0.156-0.359s0.063-0.266 0.156-0.359l5.187-5.187-2.25-2.25c-0.187-0.187-0.297-0.438-0.297-0.703 0-0.547 0.453-1 1-1h7c0.547 0 1 0.453 1 1z"></path>
</symbol>
<symbol id="icon-compress" viewBox="0 0 24 28">
<title>compress</title>
<path d="M12 15v7c0 0.547-0.453 1-1 1-0.266 0-0.516-0.109-0.703-0.297l-2.25-2.25-5.187 5.187c-0.094 0.094-0.234 0.156-0.359 0.156s-0.266-0.063-0.359-0.156l-1.781-1.781c-0.094-0.094-0.156-0.234-0.156-0.359s0.063-0.266 0.156-0.359l5.187-5.187-2.25-2.25c-0.187-0.187-0.297-0.438-0.297-0.703 0-0.547 0.453-1 1-1h7c0.547 0 1 0.453 1 1zM23.797 4.5c0 0.125-0.063 0.266-0.156 0.359l-5.187 5.187 2.25 2.25c0.187 0.187 0.297 0.438 0.297 0.703 0 0.547-0.453 1-1 1h-7c-0.547 0-1-0.453-1-1v-7c0-0.547 0.453-1 1-1 0.266 0 0.516 0.109 0.703 0.297l2.25 2.25 5.187-5.187c0.094-0.094 0.234-0.156 0.359-0.156s0.266 0.063 0.359 0.156l1.781 1.781c0.094 0.094 0.156 0.234 0.156 0.359z"></path>
</symbol>
<symbol id="icon-eye" viewBox="0 0 28 28">
<title>eye</title>
<path d="M26 15c-1.484-2.297-3.516-4.266-5.953-5.516 0.625 1.062 0.953 2.281 0.953 3.516 0 3.859-3.141 7-7 7s-7-3.141-7-7c0-1.234 0.328-2.453 0.953-3.516-2.438 1.25-4.469 3.219-5.953 5.516 2.672 4.125 6.984 7 12 7s9.328-2.875 12-7zM14.75 9c0-0.406-0.344-0.75-0.75-0.75-2.609 0-4.75 2.141-4.75 4.75 0 0.406 0.344 0.75 0.75 0.75s0.75-0.344 0.75-0.75c0-1.781 1.469-3.25 3.25-3.25 0.406 0 0.75-0.344 0.75-0.75zM28 15c0 0.391-0.125 0.75-0.313 1.078-2.875 4.734-8.141 7.922-13.687 7.922s-10.813-3.203-13.687-7.922c-0.187-0.328-0.313-0.688-0.313-1.078s0.125-0.75 0.313-1.078c2.875-4.719 8.141-7.922 13.687-7.922s10.813 3.203 13.687 7.922c0.187 0.328 0.313 0.688 0.313 1.078z"></path>
</symbol>
<symbol id="icon-chevron-up" viewBox="0 0 28 28">
<title>chevron-up</title>
<path d="M26.297 20.797l-2.594 2.578c-0.391 0.391-1.016 0.391-1.406 0l-8.297-8.297-8.297 8.297c-0.391 0.391-1.016 0.391-1.406 0l-2.594-2.578c-0.391-0.391-0.391-1.031 0-1.422l11.594-11.578c0.391-0.391 1.016-0.391 1.406 0l11.594 11.578c0.391 0.391 0.391 1.031 0 1.422z"></path>
</symbol>
<symbol id="icon-chevron-down" viewBox="0 0 28 28">
<title>chevron-down</title>
<path d="M26.297 12.625l-11.594 11.578c-0.391 0.391-1.016 0.391-1.406 0l-11.594-11.578c-0.391-0.391-0.391-1.031 0-1.422l2.594-2.578c0.391-0.391 1.016-0.391 1.406 0l8.297 8.297 8.297-8.297c0.391-0.391 1.016-0.391 1.406 0l2.594 2.578c0.391 0.391 0.391 1.031 0 1.422z"></path>
</symbol>
<symbol id="icon-folder-open" viewBox="0 0 29 28">
<title>folder-open</title>
<path d="M29.359 14.875c0 0.375-0.234 0.75-0.484 1.031l-5.25 6.188c-0.906 1.062-2.75 1.906-4.125 1.906h-17c-0.562 0-1.359-0.172-1.359-0.875 0-0.375 0.234-0.75 0.484-1.031l5.25-6.188c0.906-1.062 2.75-1.906 4.125-1.906h17c0.562 0 1.359 0.172 1.359 0.875zM24 9.5v2.5h-13c-1.953 0-4.375 1.109-5.641 2.609l-5.344 6.281c0-0.125-0.016-0.266-0.016-0.391v-15c0-1.922 1.578-3.5 3.5-3.5h5c1.922 0 3.5 1.578 3.5 3.5v0.5h8.5c1.922 0 3.5 1.578 3.5 3.5z"></path>
</symbol>
<symbol id="icon-bar-chart" viewBox="0 0 32 28">
<title>bar-chart</title>
<path d="M10 14v8h-4v-8h4zM16 6v16h-4v-16h4zM32 24v2h-32v-24h2v22h30zM22 10v12h-4v-12h4zM28 4v18h-4v-18h4z"></path>
</symbol>
<symbol id="icon-heart-o" viewBox="0 0 28 28">
<title>heart-o</title>
<path d="M26 9.312c0-4.391-2.969-5.313-5.469-5.313-2.328 0-4.953 2.516-5.766 3.484-0.375 0.453-1.156 0.453-1.531 0-0.812-0.969-3.437-3.484-5.766-3.484-2.5 0-5.469 0.922-5.469 5.313 0 2.859 2.891 5.516 2.922 5.547l9.078 8.75 9.063-8.734c0.047-0.047 2.938-2.703 2.938-5.563zM28 9.312c0 3.75-3.437 6.891-3.578 7.031l-9.734 9.375c-0.187 0.187-0.438 0.281-0.688 0.281s-0.5-0.094-0.688-0.281l-9.75-9.406c-0.125-0.109-3.563-3.25-3.563-7 0-4.578 2.797-7.313 7.469-7.313 2.734 0 5.297 2.156 6.531 3.375 1.234-1.219 3.797-3.375 6.531-3.375 4.672 0 7.469 2.734 7.469 7.313z"></path>
</symbol>
<symbol id="icon-bullhorn" viewBox="0 0 28 28">
<title>bullhorn</title>
<path d="M26 10c1.109 0 2 0.891 2 2s-0.891 2-2 2v6c0 1.094-0.906 2-2 2-2.781-2.312-7.266-5.484-12.688-5.938-1.859 0.625-2.5 2.797-1.281 4.047-1.094 1.797 0.313 3.063 1.969 4.359-0.969 1.906-5 1.937-6.438 0.609-0.906-2.781-2.25-5.563-1.156-9.078h-1.906c-1.375 0-2.5-1.125-2.5-2.5v-3c0-1.375 1.125-2.5 2.5-2.5h7.5c6 0 11-3.5 14-6 1.094 0 2 0.906 2 2v6zM24 19.437v-14.906c-4.078 3.125-8.031 4.922-12 5.359v4.219c3.969 0.438 7.922 2.203 12 5.328z"></path>
</symbol>
<symbol id="icon-briefcase" viewBox="0 0 28 28">
<title>briefcase</title>
<path d="M10 4h8v-2h-8v2zM28 14v7.5c0 1.375-1.125 2.5-2.5 2.5h-23c-1.375 0-2.5-1.125-2.5-2.5v-7.5h10.5v2.5c0 0.547 0.453 1 1 1h5c0.547 0 1-0.453 1-1v-2.5h10.5zM16 14v2h-4v-2h4zM28 6.5v6h-28v-6c0-1.375 1.125-2.5 2.5-2.5h5.5v-2.5c0-0.828 0.672-1.5 1.5-1.5h9c0.828 0 1.5 0.672 1.5 1.5v2.5h5.5c1.375 0 2.5 1.125 2.5 2.5z"></path>
</symbol>
<symbol id="icon-users" viewBox="0 0 30 28">
<title>users</title>
<path d="M9.266 14c-1.625 0.047-3.094 0.75-4.141 2h-2.094c-1.563 0-3.031-0.75-3.031-2.484 0-1.266-0.047-5.516 1.937-5.516 0.328 0 1.953 1.328 4.062 1.328 0.719 0 1.406-0.125 2.078-0.359-0.047 0.344-0.078 0.688-0.078 1.031 0 1.422 0.453 2.828 1.266 4zM26 23.953c0 2.531-1.672 4.047-4.172 4.047h-13.656c-2.5 0-4.172-1.516-4.172-4.047 0-3.531 0.828-8.953 5.406-8.953 0.531 0 2.469 2.172 5.594 2.172s5.063-2.172 5.594-2.172c4.578 0 5.406 5.422 5.406 8.953zM10 4c0 2.203-1.797 4-4 4s-4-1.797-4-4 1.797-4 4-4 4 1.797 4 4zM21 10c0 3.313-2.688 6-6 6s-6-2.688-6-6 2.688-6 6-6 6 2.688 6 6zM30 13.516c0 1.734-1.469 2.484-3.031 2.484h-2.094c-1.047-1.25-2.516-1.953-4.141-2 0.812-1.172 1.266-2.578 1.266-4 0-0.344-0.031-0.688-0.078-1.031 0.672 0.234 1.359 0.359 2.078 0.359 2.109 0 3.734-1.328 4.062-1.328 1.984 0 1.937 4.25 1.937 5.516zM28 4c0 2.203-1.797 4-4 4s-4-1.797-4-4 1.797-4 4-4 4 1.797 4 4z"></path>
</symbol>
<symbol id="icon-floppy-o" viewBox="0 0 24 28">
<title>floppy-o</title>
<path d="M6 24h12v-6h-12v6zM20 24h2v-14c0-0.297-0.266-0.938-0.469-1.141l-4.391-4.391c-0.219-0.219-0.828-0.469-1.141-0.469v6.5c0 0.828-0.672 1.5-1.5 1.5h-9c-0.828 0-1.5-0.672-1.5-1.5v-6.5h-2v20h2v-6.5c0-0.828 0.672-1.5 1.5-1.5h13c0.828 0 1.5 0.672 1.5 1.5v6.5zM14 9.5v-5c0-0.266-0.234-0.5-0.5-0.5h-3c-0.266 0-0.5 0.234-0.5 0.5v5c0 0.266 0.234 0.5 0.5 0.5h3c0.266 0 0.5-0.234 0.5-0.5zM24 10v14.5c0 0.828-0.672 1.5-1.5 1.5h-21c-0.828 0-1.5-0.672-1.5-1.5v-21c0-0.828 0.672-1.5 1.5-1.5h14.5c0.828 0 1.969 0.469 2.562 1.062l4.375 4.375c0.594 0.594 1.062 1.734 1.062 2.562z"></path>
</symbol>
<symbol id="icon-table" viewBox="0 0 26 28">
<title>table</title>
<path d="M8 21.5v-3c0-0.281-0.219-0.5-0.5-0.5h-5c-0.281 0-0.5 0.219-0.5 0.5v3c0 0.281 0.219 0.5 0.5 0.5h5c0.281 0 0.5-0.219 0.5-0.5zM8 15.5v-3c0-0.281-0.219-0.5-0.5-0.5h-5c-0.281 0-0.5 0.219-0.5 0.5v3c0 0.281 0.219 0.5 0.5 0.5h5c0.281 0 0.5-0.219 0.5-0.5zM16 21.5v-3c0-0.281-0.219-0.5-0.5-0.5h-5c-0.281 0-0.5 0.219-0.5 0.5v3c0 0.281 0.219 0.5 0.5 0.5h5c0.281 0 0.5-0.219 0.5-0.5zM8 9.5v-3c0-0.281-0.219-0.5-0.5-0.5h-5c-0.281 0-0.5 0.219-0.5 0.5v3c0 0.281 0.219 0.5 0.5 0.5h5c0.281 0 0.5-0.219 0.5-0.5zM16 15.5v-3c0-0.281-0.219-0.5-0.5-0.5h-5c-0.281 0-0.5 0.219-0.5 0.5v3c0 0.281 0.219 0.5 0.5 0.5h5c0.281 0 0.5-0.219 0.5-0.5zM24 21.5v-3c0-0.281-0.219-0.5-0.5-0.5h-5c-0.281 0-0.5 0.219-0.5 0.5v3c0 0.281 0.219 0.5 0.5 0.5h5c0.281 0 0.5-0.219 0.5-0.5zM16 9.5v-3c0-0.281-0.219-0.5-0.5-0.5h-5c-0.281 0-0.5 0.219-0.5 0.5v3c0 0.281 0.219 0.5 0.5 0.5h5c0.281 0 0.5-0.219 0.5-0.5zM24 15.5v-3c0-0.281-0.219-0.5-0.5-0.5h-5c-0.281 0-0.5 0.219-0.5 0.5v3c0 0.281 0.219 0.5 0.5 0.5h5c0.281 0 0.5-0.219 0.5-0.5zM24 9.5v-3c0-0.281-0.219-0.5-0.5-0.5h-5c-0.281 0-0.5 0.219-0.5 0.5v3c0 0.281 0.219 0.5 0.5 0.5h5c0.281 0 0.5-0.219 0.5-0.5zM26 4.5v17c0 1.375-1.125 2.5-2.5 2.5h-21c-1.375 0-2.5-1.125-2.5-2.5v-17c0-1.375 1.125-2.5 2.5-2.5h21c1.375 0 2.5 1.125 2.5 2.5z"></path>
</symbol>
<symbol id="icon-money" viewBox="0 0 30 28">
<title>money</title>
<path d="M12 18h6v-1.5h-2v-7h-1.781l-2.312 2.141 1.203 1.25c0.375-0.328 0.609-0.5 0.859-0.891h0.031v4.5h-2v1.5zM20 14c0 2.844-1.719 6.5-5 6.5s-5-3.656-5-6.5 1.719-6.5 5-6.5 5 3.656 5 6.5zM28 18v-8c-2.203 0-4-1.797-4-4h-18c0 2.203-1.797 4-4 4v8c2.203 0 4 1.797 4 4h18c0-2.203 1.797-4 4-4zM30 5v18c0 0.547-0.453 1-1 1h-28c-0.547 0-1-0.453-1-1v-18c0-0.547 0.453-1 1-1h28c0.547 0 1 0.453 1 1z"></path>
</symbol>
<symbol id="icon-sitemap" viewBox="0 0 28 28">
<title>sitemap</title>
<path d="M28 19.5v5c0 0.828-0.672 1.5-1.5 1.5h-5c-0.828 0-1.5-0.672-1.5-1.5v-5c0-0.828 0.672-1.5 1.5-1.5h1.5v-3h-8v3h1.5c0.828 0 1.5 0.672 1.5 1.5v5c0 0.828-0.672 1.5-1.5 1.5h-5c-0.828 0-1.5-0.672-1.5-1.5v-5c0-0.828 0.672-1.5 1.5-1.5h1.5v-3h-8v3h1.5c0.828 0 1.5 0.672 1.5 1.5v5c0 0.828-0.672 1.5-1.5 1.5h-5c-0.828 0-1.5-0.672-1.5-1.5v-5c0-0.828 0.672-1.5 1.5-1.5h1.5v-3c0-1.094 0.906-2 2-2h8v-3h-1.5c-0.828 0-1.5-0.672-1.5-1.5v-5c0-0.828 0.672-1.5 1.5-1.5h5c0.828 0 1.5 0.672 1.5 1.5v5c0 0.828-0.672 1.5-1.5 1.5h-1.5v3h8c1.094 0 2 0.906 2 2v3h1.5c0.828 0 1.5 0.672 1.5 1.5z"></path>
</symbol>
<symbol id="icon-cloud-download" viewBox="0 0 30 28">
<title>cloud-download</title>
<path d="M20 14.5c0-0.281-0.219-0.5-0.5-0.5h-3.5v-5.5c0-0.266-0.234-0.5-0.5-0.5h-3c-0.266 0-0.5 0.234-0.5 0.5v5.5h-3.5c-0.281 0-0.5 0.234-0.5 0.5 0 0.125 0.047 0.266 0.141 0.359l5.5 5.5c0.094 0.094 0.219 0.141 0.359 0.141 0.125 0 0.266-0.047 0.359-0.141l5.484-5.484c0.094-0.109 0.156-0.234 0.156-0.375zM30 18c0 3.313-2.688 6-6 6h-17c-3.859 0-7-3.141-7-7 0-2.719 1.578-5.187 4.031-6.328-0.016-0.234-0.031-0.453-0.031-0.672 0-4.422 3.578-8 8-8 3.25 0 6.172 1.969 7.406 4.969 0.719-0.625 1.641-0.969 2.594-0.969 2.203 0 4 1.797 4 4 0 0.766-0.219 1.516-0.641 2.156 2.719 0.641 4.641 3.063 4.641 5.844z"></path>
</symbol>
<symbol id="icon-star-half-o" viewBox="0 0 26 28">
<title>star-half-o</title>
<path d="M18.531 14.953l4.016-3.906-6.594-0.969-0.469-0.938-2.484-5.031v15.047l0.922 0.484 4.969 2.625-0.938-5.547-0.187-1.031zM25.594 10.859l-5.672 5.531 1.344 7.812c0.109 0.688-0.141 1.094-0.625 1.094-0.172 0-0.391-0.063-0.625-0.187l-7.016-3.687-7.016 3.687c-0.234 0.125-0.453 0.187-0.625 0.187-0.484 0-0.734-0.406-0.625-1.094l1.344-7.812-5.688-5.531c-0.672-0.672-0.453-1.328 0.484-1.469l7.844-1.141 3.516-7.109c0.203-0.422 0.484-0.641 0.766-0.641v0c0.281 0 0.547 0.219 0.766 0.641l3.516 7.109 7.844 1.141c0.938 0.141 1.156 0.797 0.469 1.469z"></path>
</symbol>
<symbol id="icon-graduation-cap" viewBox="0 0 36 28">
<title>graduation-cap</title>
<path d="M27.719 13.062l0.281 4.937c0.125 2.203-4.484 4-10 4s-10.125-1.797-10-4l0.281-4.937 8.969 2.828c0.25 0.078 0.5 0.109 0.75 0.109s0.5-0.031 0.75-0.109zM36 8c0 0.219-0.141 0.406-0.344 0.484l-17.5 5.5c-0.063 0.016-0.109 0.016-0.156 0.016s-0.094 0-0.156-0.016l-10.187-3.219c-0.891 0.703-1.516 2.422-1.641 4.531 0.594 0.344 0.984 0.969 0.984 1.703 0 0.703-0.359 1.313-0.906 1.672l0.906 6.766c0.016 0.141-0.031 0.281-0.125 0.391s-0.234 0.172-0.375 0.172h-3c-0.141 0-0.281-0.063-0.375-0.172s-0.141-0.25-0.125-0.391l0.906-6.766c-0.547-0.359-0.906-0.969-0.906-1.672 0-0.75 0.422-1.391 1.016-1.734 0.094-1.828 0.562-3.797 1.531-5.156l-5.203-1.625c-0.203-0.078-0.344-0.266-0.344-0.484s0.141-0.406 0.344-0.484l17.5-5.5c0.063-0.016 0.109-0.016 0.156-0.016s0.094 0 0.156 0.016l17.5 5.5c0.203 0.078 0.344 0.266 0.344 0.484z"></path>
</symbol>
<symbol id="icon-building" viewBox="0 0 22 28">
<title>building</title>
<path d="M21 0c0.547 0 1 0.453 1 1v26c0 0.547-0.453 1-1 1h-20c-0.547 0-1-0.453-1-1v-26c0-0.547 0.453-1 1-1h20zM8 4.5v1c0 0.281 0.219 0.5 0.5 0.5h1c0.281 0 0.5-0.219 0.5-0.5v-1c0-0.281-0.219-0.5-0.5-0.5h-1c-0.281 0-0.5 0.219-0.5 0.5zM8 8.5v1c0 0.281 0.219 0.5 0.5 0.5h1c0.281 0 0.5-0.219 0.5-0.5v-1c0-0.281-0.219-0.5-0.5-0.5h-1c-0.281 0-0.5 0.219-0.5 0.5zM8 12.5v1c0 0.281 0.219 0.5 0.5 0.5h1c0.281 0 0.5-0.219 0.5-0.5v-1c0-0.281-0.219-0.5-0.5-0.5h-1c-0.281 0-0.5 0.219-0.5 0.5zM8 16.5v1c0 0.281 0.219 0.5 0.5 0.5h1c0.281 0 0.5-0.219 0.5-0.5v-1c0-0.281-0.219-0.5-0.5-0.5h-1c-0.281 0-0.5 0.219-0.5 0.5zM6 21.5v-1c0-0.281-0.219-0.5-0.5-0.5h-1c-0.281 0-0.5 0.219-0.5 0.5v1c0 0.281 0.219 0.5 0.5 0.5h1c0.281 0 0.5-0.219 0.5-0.5zM6 17.5v-1c0-0.281-0.219-0.5-0.5-0.5h-1c-0.281 0-0.5 0.219-0.5 0.5v1c0 0.281 0.219 0.5 0.5 0.5h1c0.281 0 0.5-0.219 0.5-0.5zM6 13.5v-1c0-0.281-0.219-0.5-0.5-0.5h-1c-0.281 0-0.5 0.219-0.5 0.5v1c0 0.281 0.219 0.5 0.5 0.5h1c0.281 0 0.5-0.219 0.5-0.5zM6 9.5v-1c0-0.281-0.219-0.5-0.5-0.5h-1c-0.281 0-0.5 0.219-0.5 0.5v1c0 0.281 0.219 0.5 0.5 0.5h1c0.281 0 0.5-0.219 0.5-0.5zM6 5.5v-1c0-0.281-0.219-0.5-0.5-0.5h-1c-0.281 0-0.5 0.219-0.5 0.5v1c0 0.281 0.219 0.5 0.5 0.5h1c0.281 0 0.5-0.219 0.5-0.5zM14 25.5v-3c0-0.281-0.219-0.5-0.5-0.5h-5c-0.281 0-0.5 0.219-0.5 0.5v3c0 0.281 0.219 0.5 0.5 0.5h5c0.281 0 0.5-0.219 0.5-0.5zM14 17.5v-1c0-0.281-0.219-0.5-0.5-0.5h-1c-0.281 0-0.5 0.219-0.5 0.5v1c0 0.281 0.219 0.5 0.5 0.5h1c0.281 0 0.5-0.219 0.5-0.5zM14 13.5v-1c0-0.281-0.219-0.5-0.5-0.5h-1c-0.281 0-0.5 0.219-0.5 0.5v1c0 0.281 0.219 0.5 0.5 0.5h1c0.281 0 0.5-0.219 0.5-0.5zM14 9.5v-1c0-0.281-0.219-0.5-0.5-0.5h-1c-0.281 0-0.5 0.219-0.5 0.5v1c0 0.281 0.219 0.5 0.5 0.5h1c0.281 0 0.5-0.219 0.5-0.5zM14 5.5v-1c0-0.281-0.219-0.5-0.5-0.5h-1c-0.281 0-0.5 0.219-0.5 0.5v1c0 0.281 0.219 0.5 0.5 0.5h1c0.281 0 0.5-0.219 0.5-0.5zM18 21.5v-1c0-0.281-0.219-0.5-0.5-0.5h-1c-0.281 0-0.5 0.219-0.5 0.5v1c0 0.281 0.219 0.5 0.5 0.5h1c0.281 0 0.5-0.219 0.5-0.5zM18 17.5v-1c0-0.281-0.219-0.5-0.5-0.5h-1c-0.281 0-0.5 0.219-0.5 0.5v1c0 0.281 0.219 0.5 0.5 0.5h1c0.281 0 0.5-0.219 0.5-0.5zM18 13.5v-1c0-0.281-0.219-0.5-0.5-0.5h-1c-0.281 0-0.5 0.219-0.5 0.5v1c0 0.281 0.219 0.5 0.5 0.5h1c0.281 0 0.5-0.219 0.5-0.5zM18 9.5v-1c0-0.281-0.219-0.5-0.5-0.5h-1c-0.281 0-0.5 0.219-0.5 0.5v1c0 0.281 0.219 0.5 0.5 0.5h1c0.281 0 0.5-0.219 0.5-0.5zM18 5.5v-1c0-0.281-0.219-0.5-0.5-0.5h-1c-0.281 0-0.5 0.219-0.5 0.5v1c0 0.281 0.219 0.5 0.5 0.5h1c0.281 0 0.5-0.219 0.5-0.5z"></path>
</symbol>
<symbol id="icon-file-pdf-o" viewBox="0 0 24 28">
<title>file-pdf-o</title>
<path d="M22.937 5.938c0.578 0.578 1.062 1.734 1.062 2.562v18c0 0.828-0.672 1.5-1.5 1.5h-21c-0.828 0-1.5-0.672-1.5-1.5v-25c0-0.828 0.672-1.5 1.5-1.5h14c0.828 0 1.984 0.484 2.562 1.062zM16 2.125v5.875h5.875c-0.094-0.266-0.234-0.531-0.344-0.641l-4.891-4.891c-0.109-0.109-0.375-0.25-0.641-0.344zM22 26v-16h-6.5c-0.828 0-1.5-0.672-1.5-1.5v-6.5h-12v24h20zM13.969 16.734c0.391 0.313 0.828 0.594 1.312 0.875 0.656-0.078 1.266-0.109 1.828-0.109 1.047 0 2.375 0.125 2.766 0.766 0.109 0.156 0.203 0.438 0.031 0.812-0.016 0.016-0.031 0.047-0.047 0.063v0.016c-0.047 0.281-0.281 0.594-1.109 0.594-1 0-2.516-0.453-3.828-1.141-2.172 0.234-4.453 0.719-6.125 1.297-1.609 2.75-2.844 4.094-3.781 4.094-0.156 0-0.297-0.031-0.438-0.109l-0.375-0.187c-0.047-0.016-0.063-0.047-0.094-0.078-0.078-0.078-0.141-0.25-0.094-0.562 0.156-0.719 1-1.922 2.938-2.938 0.125-0.078 0.281-0.031 0.359 0.094 0.016 0.016 0.031 0.047 0.031 0.063 0.484-0.797 1.047-1.813 1.672-3.078 0.703-1.406 1.25-2.781 1.625-4.094-0.5-1.703-0.656-3.453-0.375-4.484 0.109-0.391 0.344-0.625 0.656-0.625h0.344c0.234 0 0.422 0.078 0.547 0.234 0.187 0.219 0.234 0.562 0.141 1.062-0.016 0.047-0.031 0.094-0.063 0.125 0.016 0.047 0.016 0.078 0.016 0.125v0.469c-0.016 0.984-0.031 1.922-0.219 3 0.547 1.641 1.359 2.969 2.281 3.719zM4.969 23.156c0.469-0.219 1.141-0.891 2.141-2.469-1.172 0.906-1.906 1.937-2.141 2.469zM11.188 8.781c-0.156 0.438-0.156 1.188-0.031 2.063 0.047-0.25 0.078-0.484 0.109-0.688 0.031-0.266 0.078-0.484 0.109-0.672 0.016-0.047 0.031-0.078 0.063-0.125-0.016-0.016-0.016-0.047-0.031-0.078-0.016-0.281-0.109-0.453-0.203-0.562 0 0.031-0.016 0.047-0.016 0.063zM9.25 19.109c1.375-0.547 2.906-0.984 4.438-1.266-0.156-0.125-0.313-0.234-0.453-0.359-0.766-0.672-1.453-1.609-1.984-2.75-0.297 0.953-0.734 1.969-1.297 3.078-0.234 0.438-0.469 0.875-0.703 1.297zM19.344 18.859c-0.078-0.078-0.484-0.375-2.188-0.375 0.766 0.281 1.469 0.438 1.937 0.438 0.141 0 0.219 0 0.281-0.016 0-0.016-0.016-0.031-0.031-0.047z"></path>
</symbol>
<symbol id="icon-binoculars" viewBox="0 0 28 28">
<title>binoculars</title>
<path d="M11 5v12c0 0.547-0.453 1-1 1v0 9c0 0.547-0.453 1-1 1h-8c-0.547 0-1-0.453-1-1v-8l3.891-13.641c0.063-0.219 0.266-0.359 0.484-0.359h6.625zM16 5v11h-4v-11h4zM28 19v8c0 0.547-0.453 1-1 1h-8c-0.547 0-1-0.453-1-1v-9c-0.547 0-1-0.453-1-1v-12h6.625c0.219 0 0.422 0.141 0.484 0.359zM11.5 0.5v3.5h-5.5v-3.5c0-0.281 0.219-0.5 0.5-0.5h4.5c0.281 0 0.5 0.219 0.5 0.5zM22 0.5v3.5h-5.5v-3.5c0-0.281 0.219-0.5 0.5-0.5h4.5c0.281 0 0.5 0.219 0.5 0.5z"></path>
</symbol>
<symbol id="icon-trash" viewBox="0 0 22 28">
<title>trash</title>
<path d="M8 21.5v-11c0-0.281-0.219-0.5-0.5-0.5h-1c-0.281 0-0.5 0.219-0.5 0.5v11c0 0.281 0.219 0.5 0.5 0.5h1c0.281 0 0.5-0.219 0.5-0.5zM12 21.5v-11c0-0.281-0.219-0.5-0.5-0.5h-1c-0.281 0-0.5 0.219-0.5 0.5v11c0 0.281 0.219 0.5 0.5 0.5h1c0.281 0 0.5-0.219 0.5-0.5zM16 21.5v-11c0-0.281-0.219-0.5-0.5-0.5h-1c-0.281 0-0.5 0.219-0.5 0.5v11c0 0.281 0.219 0.5 0.5 0.5h1c0.281 0 0.5-0.219 0.5-0.5zM7.5 6h7l-0.75-1.828c-0.047-0.063-0.187-0.156-0.266-0.172h-4.953c-0.094 0.016-0.219 0.109-0.266 0.172zM22 6.5v1c0 0.281-0.219 0.5-0.5 0.5h-1.5v14.812c0 1.719-1.125 3.187-2.5 3.187h-13c-1.375 0-2.5-1.406-2.5-3.125v-14.875h-1.5c-0.281 0-0.5-0.219-0.5-0.5v-1c0-0.281 0.219-0.5 0.5-0.5h4.828l1.094-2.609c0.313-0.766 1.25-1.391 2.078-1.391h5c0.828 0 1.766 0.625 2.078 1.391l1.094 2.609h4.828c0.281 0 0.5 0.219 0.5 0.5z"></path>
</symbol>
<symbol id="icon-increase" viewBox="0 0 30 28">
<title>increase</title>
<path d="M30,4.5v6.8c0,0.4-0.5,0.7-0.9,0.3l-1.9-1.9l-9.9,9.9c-0.2,0.2-0.5,0.2-0.7,0L13,16l-8.5,8.5l-3-3l11.1-11.1
c0.2-0.2,0.5-0.2,0.7,0L17,14l7.2-7.2l-1.9-1.9C22,4.5,22.3,4,22.7,4h6.8C29.8,4,30,4.2,30,4.5z"/>
</symbol>
<symbol id="icon-venus" viewBox="0 0 18 28">
<title>venus</title>
<path d="M18 9c0 4.625-3.5 8.437-8 8.937v4.062h3.5c0.281 0 0.5 0.219 0.5 0.5v1c0 0.281-0.219 0.5-0.5 0.5h-3.5v3.5c0 0.281-0.219 0.5-0.5 0.5h-1c-0.281 0-0.5-0.219-0.5-0.5v-3.5h-3.5c-0.281 0-0.5-0.219-0.5-0.5v-1c0-0.281 0.219-0.5 0.5-0.5h3.5v-4.062c-4.734-0.516-8.359-4.719-7.969-9.672 0.344-4.25 3.719-7.734 7.938-8.203 5.437-0.609 10.031 3.625 10.031 8.937zM2 9c0 3.859 3.141 7 7 7s7-3.141 7-7-3.141-7-7-7-7 3.141-7 7z"></path>
</symbol>
<symbol id="icon-mars" viewBox="0 0 24 28">
<title>mars</title>
<path d="M23 2c0.547 0 1 0.453 1 1v6.5c0 0.281-0.219 0.5-0.5 0.5h-1c-0.281 0-0.5-0.219-0.5-0.5v-4.094l-5.969 5.984c1.234 1.531 1.969 3.484 1.969 5.609 0 4.969-4.031 9-9 9s-9-4.031-9-9 4.031-9 9-9c2.125 0 4.078 0.734 5.609 1.969l5.969-5.969h-4.078c-0.281 0-0.5-0.219-0.5-0.5v-1c0-0.281 0.219-0.5 0.5-0.5h6.5zM9 24c3.859 0 7-3.141 7-7s-3.141-7-7-7-7 3.141-7 7 3.141 7 7 7z"></path>
</symbol>
<symbol id="icon-balance-scale" viewBox="0 0 34 28">
<title>balance-scale</title>
<path d="M27 7l-6 11h12zM7 7l-6 11h12zM19.828 4c-0.297 0.844-0.984 1.531-1.828 1.828v20.172h9.5c0.281 0 0.5 0.219 0.5 0.5v1c0 0.281-0.219 0.5-0.5 0.5h-21c-0.281 0-0.5-0.219-0.5-0.5v-1c0-0.281 0.219-0.5 0.5-0.5h9.5v-20.172c-0.844-0.297-1.531-0.984-1.828-1.828h-7.672c-0.281 0-0.5-0.219-0.5-0.5v-1c0-0.281 0.219-0.5 0.5-0.5h7.672c0.422-1.172 1.516-2 2.828-2s2.406 0.828 2.828 2h7.672c0.281 0 0.5 0.219 0.5 0.5v1c0 0.281-0.219 0.5-0.5 0.5h-7.672zM17 4.25c0.688 0 1.25-0.562 1.25-1.25s-0.562-1.25-1.25-1.25-1.25 0.562-1.25 1.25 0.562 1.25 1.25 1.25zM34 18c0 3.219-4.453 4.5-7 4.5s-7-1.281-7-4.5v0c0-0.609 5.453-10.266 6.125-11.484 0.172-0.313 0.516-0.516 0.875-0.516s0.703 0.203 0.875 0.516c0.672 1.219 6.125 10.875 6.125 11.484v0zM14 18c0 3.219-4.453 4.5-7 4.5s-7-1.281-7-4.5v0c0-0.609 5.453-10.266 6.125-11.484 0.172-0.313 0.516-0.516 0.875-0.516s0.703 0.203 0.875 0.516c0.672 1.219 6.125 10.875 6.125 11.484z"></path>
</symbol>
</defs>
</svg>
