<svg version="1.1" xmlns="http://www.w3.org/2000/svg" xmlns:xlink="http://www.w3.org/1999/xlink" x="0px" y="0px"
	 viewBox="0 0 30 60">
	<mask id="male">
		<rect width="100%" height="100%" fill="#FFFFFF" />
		<g>
			<path d="M15,1c2.7,0,4.8,2.1,4.8,4.8c0,2.7-2.1,4.8-4.8,4.8s-4.8-2.1-4.8-4.8C10.2,3.1,12.3,1,15,1z
	 M26.3,34.8c0,1-0.8,1.8-1.8,1.8h-0.4c-1,0-1.8-0.8-1.8-1.8V19h-1.4v37.4c0,1.4-1.2,2.6-2.6,2.6c-1.4,0-2.6-1.2-2.6-2.6l0-21.8
	h-1.4v21.8c0,1.4-1.2,2.6-2.6,2.6s-2.6-1.2-2.6-2.6V19H7.7v15.8c0,1-0.8,1.8-1.8,1.8H5.5c-1,0-1.8-0.8-1.8-1.8v-19
	c0-2.3,1.9-4.2,4.2-4.2h14.2c2.3,0,4.2,1.9,4.2,4.2V34.8z"></path>
		</g>
	</mask>
	<rect width="100%" height="100%" fill="#FFFFFF" mask="url(#male)" />
</svg>