<svg version="1.1" xmlns="http://www.w3.org/2000/svg" xmlns:xlink="http://www.w3.org/1999/xlink" x="0px" y="0px"
	 viewBox="0 0 150 24">
<g fill="#4584c4">
<path d="M51.7,3.3c0.2,0,0.3,0.1,0.3,0.3v16.7c0,0.2-0.1,0.3-0.3,0.3h-3.2c-0.2,0-0.3-0.1-0.3-0.3v-6.8h-6.1v6.8
	c0,0.2-0.1,0.3-0.3,0.3h-3.2c-0.2,0-0.3-0.1-0.3-0.3V3.7c0-0.2,0.1-0.3,0.3-0.3h3.2c0.2,0,0.3,0.1,0.3,0.3v6.5h6.1V3.7
	c0-0.2,0.1-0.3,0.3-0.3H51.7z"/>
<path d="M62.1,3c3.6,0,6.9,2.4,6.9,7.3v3.3c0,4.9-3.3,7.3-6.9,7.3h-0.4c-3.6,0-6.9-2.5-6.9-7.3v-3.3
	c0-4.9,3.3-7.3,6.9-7.3H62.1z M61.8,6.4c-1.9,0-3.1,1.3-3.1,3.7V14c0,2.4,1.1,3.7,3.1,3.7H62c1.9,0,3.1-1.3,3.1-3.7V10
	c0-2.3-1.1-3.7-3.1-3.7H61.8z"/>
<path d="M78.5,3.3c3.5,0,5.9,1.5,5.9,5.1v0.2c0,2.4-1.2,4.2-3.1,5l1.7,2.5l2.4,4.2c0.1,0.2,0,0.4-0.2,0.4h-3.6
	c-0.2,0-0.3-0.1-0.4-0.3l-3.5-6.1h-2v6.1c0,0.2-0.1,0.3-0.3,0.3h-3.2c-0.2,0-0.3-0.1-0.3-0.3V3.7c0-0.2,0.1-0.3,0.3-0.3H78.5z
	 M75.6,11.2h2.3c1.9,0,2.6-0.9,2.6-2.2V8.8c0-1.4-0.7-2.2-2.6-2.2h-2.3V11.2z"/>
<path d="M91.5,13.6c-2.8-1-4.6-2.5-4.6-5.2V8.2c0-3.4,2.9-5.1,5.9-5.1h0.2c1.8,0,3.7,0.5,4.2,0.7
	c0.3,0.1,0.3,0.2,0.3,0.5V7c0,0.2-0.2,0.3-0.4,0.2c-1.6-0.5-2.6-0.9-3.9-0.9H93c-1.2,0-2.2,0.6-2.2,1.7v0.1c0,0.9,0.7,1.3,2.1,1.8
	l1,0.3c3.1,1,4.8,2.4,4.8,5.4v0.2c0,3.5-2.8,5.2-6.1,5.2h-0.2c-1.9,0-4.1-0.6-4.8-0.9c-0.2-0.1-0.3-0.2-0.3-0.5v-2.7
	c0-0.2,0.2-0.3,0.4-0.2c2.3,0.8,3.1,1.1,4.5,1.1h0.1c1.5,0,2.5-0.7,2.5-1.8v-0.1c0-1.1-0.8-1.4-2.3-1.9L91.5,13.6z"/>
<path d="M111,10.2c0.2,0,0.3,0.1,0.3,0.3v2.7c0,0.2-0.1,0.3-0.3,0.3h-6.3v3.8h7c0.2,0,0.3,0.1,0.3,0.3v2.7
	c0,0.2-0.1,0.3-0.3,0.3h-10.5c-0.2,0-0.3-0.1-0.3-0.3V3.7c0-0.2,0.1-0.3,0.3-0.3h10.5c0.2,0,0.3,0.1,0.3,0.3v2.7
	c0,0.2-0.1,0.3-0.3,0.3h-7v3.5L111,10.2z"/>
<path d="M125,3.3c0.2,0,0.3,0.1,0.3,0.3v2.7c0,0.2-0.1,0.3-0.3,0.3h-7v3.7h6.3c0.2,0,0.3,0.1,0.3,0.3v2.7
	c0,0.2-0.1,0.3-0.3,0.3h-6.3v6.6c0,0.2-0.1,0.3-0.3,0.3h-3.2c-0.2,0-0.3-0.1-0.3-0.3V3.7c0-0.2,0.1-0.3,0.3-0.3L125,3.3z"/>
<path d="M137.7,17.3c0.2,0,0.3,0.1,0.3,0.3v2.7c0,0.2-0.1,0.3-0.3,0.3h-9.8c-0.2,0-0.3-0.1-0.3-0.3V3.7
	c0-0.2,0.1-0.3,0.3-0.3h3.2c0.2,0,0.3,0.1,0.3,0.3v13.6L137.7,17.3z"/>
<path d="M149.6,3.3c0.3,0,0.5,0.3,0.4,0.5L144.7,15v5.4c0,0.2-0.1,0.3-0.3,0.3h-3.2c-0.2,0-0.3-0.1-0.3-0.3V15
	l-5.2-11.1c-0.1-0.3,0.1-0.5,0.4-0.5h3.2c0.2,0,0.4,0.1,0.5,0.3l2.3,4.8l0.7,3h0.1l0.7-3l2.3-4.8c0.1-0.2,0.2-0.3,0.5-0.3H149.6z"
	/>
<path d="M19.5,5.1H16c-0.2,0-0.4-0.2-0.4-0.4c0-0.2,0.2-0.5,0.4-0.5h3.5c0.2,0,0.4,0.2,0.4,0.5
	C20,4.9,19.8,5.1,19.5,5.1z"/>
<path d="M14.5,5.1H6.4C6.2,5.1,6,4.9,6,4.7c0-0.2,0.2-0.5,0.4-0.5h8.1c0.2,0,0.4,0.2,0.4,0.5
	C15,4.9,14.8,5.1,14.5,5.1z"/>
<path d="M15.5,3H3.4C3.2,3,3,2.8,3,2.6c0-0.2,0.2-0.5,0.4-0.5h12.1c0.2,0,0.4,0.2,0.4,0.5C16,2.8,15.8,3,15.5,3z"/>
<path d="M19.5,3H17c-0.2,0-0.4-0.2-0.4-0.5c0-0.2,0.2-0.5,0.4-0.5h2.5c0.2,0,0.4,0.2,0.4,0.5C20,2.8,19.8,3,19.5,3z
	"/>
<path d="M19.5,0.9h-5c-0.2,0-0.4-0.2-0.4-0.5c0-0.2,0.2-0.5,0.4-0.5h5C19.8,0,20,0.2,20,0.5
	C20,0.7,19.8,0.9,19.5,0.9z"/>
<path d="M13,0.9h-0.6c-0.2,0-0.4-0.2-0.4-0.5C12,0.2,12.2,0,12.4,0H13c0.2,0,0.4,0.2,0.4,0.5
	C13.5,0.7,13.3,0.9,13,0.9z"/>
<path d="M17.4,7.2H4C3.8,7.2,3.6,7,3.6,6.8c0-0.2,0.2-0.4,0.4-0.4h13.4c0.2,0,0.4,0.2,0.4,0.4
	C17.9,7,17.7,7.2,17.4,7.2z"/>
<path d="M19.5,7.2h-0.6c-0.2,0-0.4-0.2-0.4-0.5c0-0.2,0.2-0.4,0.4-0.4h0.6c0.2,0,0.4,0.2,0.4,0.4
	C20,7,19.8,7.2,19.5,7.2z"/>
<path d="M29.4,5.1h-5c-0.2,0-0.4-0.2-0.4-0.4c0-0.2,0.2-0.5,0.4-0.5h5c0.2,0,0.4,0.2,0.4,0.5
	C29.9,4.9,29.6,5.1,29.4,5.1z"/>
<path d="M31.5,5.1h-0.6c-0.2,0-0.4-0.2-0.4-0.4c0-0.2,0.2-0.5,0.4-0.5h0.6c0.2,0,0.4,0.2,0.4,0.5
	C31.9,4.9,31.7,5.1,31.5,5.1z"/>
<path d="M31.5,3h-5c-0.2,0-0.4-0.2-0.4-0.5c0-0.2,0.2-0.5,0.4-0.5h5c0.2,0,0.4,0.2,0.4,0.5C31.9,2.8,31.7,3,31.5,3z
	"/>
<path d="M25,3h-0.6C24.2,3,24,2.8,24,2.6c0-0.2,0.2-0.5,0.4-0.5H25c0.2,0,0.4,0.2,0.4,0.5C25.5,2.8,25.3,3,25,3z"/>
<path d="M29.4,0.9h-5c-0.2,0-0.4-0.2-0.4-0.5C24,0.2,24.2,0,24.4,0h5c0.2,0,0.4,0.2,0.4,0.5
	C29.9,0.7,29.6,0.9,29.4,0.9z"/>
<path d="M31.5,0.9h-0.6c-0.2,0-0.4-0.2-0.4-0.5c0-0.2,0.2-0.5,0.4-0.5h0.6c0.2,0,0.4,0.2,0.4,0.5
	C31.9,0.7,31.7,0.9,31.5,0.9z"/>
<path d="M31.5,7.2h-5c-0.2,0-0.4-0.2-0.4-0.5c0-0.2,0.2-0.4,0.4-0.4h5c0.2,0,0.4,0.2,0.4,0.4
	C31.9,7,31.7,7.2,31.5,7.2z"/>
<path d="M25,7.2h-0.6C24.2,7.2,24,7,24,6.8c0-0.2,0.2-0.4,0.4-0.4H25c0.2,0,0.4,0.2,0.4,0.4C25.5,7,25.3,7.2,25,7.2
	z"/>
<path d="M19.5,21.9H5.8c-0.2,0-0.4-0.2-0.4-0.5c0-0.2,0.2-0.5,0.4-0.5h13.7c0.2,0,0.4,0.2,0.4,0.5
	C20,21.7,19.8,21.9,19.5,21.9z"/>
<path d="M4.3,21.9H3.4c-0.2,0-0.4-0.2-0.4-0.5C3,21.2,3.2,21,3.4,21h0.9c0.2,0,0.4,0.2,0.4,0.5
	C4.8,21.7,4.6,21.9,4.3,21.9z"/>
<path d="M7.5,19.8h-2c-0.2,0-0.4-0.2-0.4-0.5c0-0.2,0.2-0.4,0.4-0.4h2c0.2,0,0.4,0.2,0.4,0.4
	C8,19.6,7.8,19.8,7.5,19.8z"/>
<path d="M19.5,19.8H9c-0.2,0-0.4-0.2-0.4-0.5c0-0.2,0.2-0.4,0.4-0.4h10.5c0.2,0,0.4,0.2,0.4,0.4
	C20,19.6,19.8,19.8,19.5,19.8z"/>
<path d="M19.5,17.7H3.4c-0.2,0-0.4-0.2-0.4-0.4c0-0.2,0.2-0.5,0.4-0.5h16.1c0.2,0,0.4,0.2,0.4,0.5
	C20,17.5,19.8,17.7,19.5,17.7z"/>
<path d="M1.9,17.7H0.4c-0.2,0-0.4-0.2-0.4-0.4c0-0.2,0.2-0.5,0.4-0.5h1.5c0.2,0,0.4,0.2,0.4,0.5
	C2.4,17.5,2.2,17.7,1.9,17.7z"/>
<path d="M19.5,24h-7.1c-0.2,0-0.4-0.2-0.4-0.5c0-0.2,0.2-0.5,0.4-0.5h7.1c0.2,0,0.4,0.2,0.4,0.5
	C20,23.8,19.8,24,19.5,24z"/>
<path d="M31.5,21.9h-7.1c-0.2,0-0.4-0.2-0.4-0.5c0-0.2,0.2-0.5,0.4-0.5h7.1c0.2,0,0.4,0.2,0.4,0.5
	C31.9,21.7,31.7,21.9,31.5,21.9z"/>
<path d="M31.5,19.8h-4.7c-0.2,0-0.4-0.2-0.4-0.5c0-0.2,0.2-0.4,0.4-0.4h4.7c0.2,0,0.4,0.2,0.4,0.4
	C31.9,19.6,31.7,19.8,31.5,19.8z"/>
<path d="M25.3,19.8h-0.9c-0.2,0-0.4-0.2-0.4-0.5c0-0.2,0.2-0.4,0.4-0.4h0.9c0.2,0,0.4,0.2,0.4,0.4
	C25.8,19.6,25.6,19.8,25.3,19.8z"/>
<path d="M31.5,17.7h-7.1c-0.2,0-0.4-0.2-0.4-0.4c0-0.2,0.2-0.5,0.4-0.5h7.1c0.2,0,0.4,0.2,0.4,0.5
	C31.9,17.5,31.7,17.7,31.5,17.7z"/>
<path d="M31.5,24h-0.8c-0.2,0-0.4-0.2-0.4-0.5c0-0.2,0.2-0.5,0.4-0.5h0.8c0.2,0,0.4,0.2,0.4,0.5
	C31.9,23.8,31.7,24,31.5,24z"/>
<path d="M29.2,24h-4.8c-0.2,0-0.4-0.2-0.4-0.5c0-0.2,0.2-0.5,0.4-0.5h4.8c0.2,0,0.4,0.2,0.4,0.5
	C29.6,23.8,29.4,24,29.2,24z"/>
<path d="M31.5,13.5h-26c-0.2,0-0.4-0.2-0.4-0.5c0-0.2,0.2-0.5,0.4-0.5h26c0.2,0,0.4,0.2,0.4,0.5
	C31.9,13.3,31.7,13.5,31.5,13.5z"/>
<path d="M4,13.5H3.4C3.2,13.5,3,13.3,3,13c0-0.2,0.2-0.5,0.4-0.5H4c0.2,0,0.4,0.2,0.4,0.5C4.5,13.3,4.3,13.5,4,13.5
	z"/>
<path d="M18.4,11.4h-6c-0.2,0-0.4-0.2-0.4-0.5c0-0.2,0.2-0.5,0.4-0.5h6c0.2,0,0.4,0.2,0.4,0.5
	C18.8,11.2,18.6,11.4,18.4,11.4z"/>
<path d="M29.4,11.4h-8.6c-0.2,0-0.4-0.2-0.4-0.5c0-0.2,0.2-0.5,0.4-0.5h8.6c0.2,0,0.4,0.2,0.4,0.5
	C29.9,11.2,29.6,11.4,29.4,11.4z"/>
<path d="M31.5,11.4h-0.6c-0.2,0-0.4-0.2-0.4-0.5c0-0.2,0.2-0.5,0.4-0.5h0.6c0.2,0,0.4,0.2,0.4,0.5
	C31.9,11.2,31.7,11.4,31.5,11.4z"/>
<path d="M31.5,9.3h-2.1c-0.2,0-0.4-0.2-0.4-0.5c0-0.2,0.2-0.5,0.4-0.5h2.1c0.2,0,0.4,0.2,0.4,0.5
	C31.9,9.1,31.7,9.3,31.5,9.3z"/>
<path d="M27.3,9.3h-2.7c-0.2,0-0.4-0.2-0.4-0.5c0-0.2,0.2-0.5,0.4-0.5h2.7c0.2,0,0.4,0.2,0.4,0.5
	C27.8,9.1,27.6,9.3,27.3,9.3z"/>
<path d="M19.2,9.3H6.1c-0.2,0-0.4-0.2-0.4-0.5c0-0.2,0.2-0.5,0.4-0.5h13.1c0.2,0,0.4,0.2,0.4,0.5
	C19.7,9.1,19.5,9.3,19.2,9.3z"/>
<path d="M4.6,9.3H4c-0.2,0-0.4-0.2-0.4-0.5c0-0.2,0.2-0.5,0.4-0.5h0.6c0.2,0,0.4,0.2,0.4,0.5
	C5.1,9.1,4.9,9.3,4.6,9.3z"/>
<path d="M14.8,15.6h-2.3c-0.2,0-0.4-0.2-0.4-0.5c0-0.2,0.2-0.5,0.4-0.5h2.3c0.2,0,0.4,0.2,0.4,0.5
	C15.2,15.4,15,15.6,14.8,15.6z"/>
<path d="M19.6,15.6h-3c-0.2,0-0.4-0.2-0.4-0.5c0-0.2,0.2-0.5,0.4-0.5h3c0.2,0,0.4,0.2,0.4,0.5
	C20.1,15.4,19.9,15.6,19.6,15.6z"/>
<path d="M29.4,15.6h-5c-0.2,0-0.4-0.2-0.4-0.5c0-0.2,0.2-0.5,0.4-0.5h5c0.2,0,0.4,0.2,0.4,0.5
	C29.9,15.4,29.6,15.6,29.4,15.6z"/>
<path d="M31.5,15.6h-0.6c-0.2,0-0.4-0.2-0.4-0.5c0-0.2,0.2-0.5,0.4-0.5h0.6c0.2,0,0.4,0.2,0.4,0.5
	C31.9,15.4,31.7,15.6,31.5,15.6z"/>
</g>
</svg>